<?xml version="1.0" encoding="UTF-8"?>
<svg version="1.1" xmlns="http://www.w3.org/2000/svg" width="512" height="512">
<path d="M0 0 C6.72877583 5.51895553 10.82132793 11.81847731 12.75 20.3125 C13.07885326 24.18118259 13.03681714 27.99635803 12.9375 31.875 C12.875625 35.319375 12.81375 38.76375 12.75 42.3125 C26.28 42.3125 39.81 42.3125 53.75 42.3125 C53.75 36.0425 53.75 29.7725 53.75 23.3125 C55.98555885 13.2524852 58.70613888 5.45933037 67.484375 -0.4375 C76.66540627 -5.50289656 84.8066028 -7.17435432 94.9375 -4.4375 C103.04699542 -1.71350924 108.85514926 3.34072966 113.75 10.3125 C117.11748476 17.16936943 117.11205937 23.26988756 116.9375 30.8125 C116.875625 34.6075 116.81375 38.4025 116.75 42.3125 C130.61 42.3125 144.47 42.3125 158.75 42.3125 C158.59288353 34.81884746 158.59288353 34.81884746 158.38964844 27.32641602 C158.28458565 17.31410141 161.00612081 10.40776088 167.83203125 3.1015625 C174.82198004 -3.41859339 182.80352371 -6.26274762 192.328125 -6 C200.3323307 -4.96719926 208.08823389 -1.47315596 213.75 4.3125 C222.72271612 16.04297742 221.75 27.33710628 221.75 42.3125 C235.28 42.3125 248.81 42.3125 262.75 42.3125 C262.6675 38.909375 262.585 35.50625 262.5 32 C262.41883292 19.92374959 263.84753659 11.24558333 272.46484375 2.2578125 C279.41739123 -3.66076638 287.27451897 -6.04818075 296.2890625 -5.8984375 C305.34767563 -5.12198495 312.32503977 -1.4435797 318.47265625 5.1640625 C325.10860137 13.3489383 326.20351817 21.56850121 325.9375 31.875 C325.92396484 32.88369141 325.91042969 33.89238281 325.89648438 34.93164062 C325.86149576 37.39250621 325.81241158 39.85220335 325.75 42.3125 C326.95140625 42.28929687 328.1528125 42.26609375 329.390625 42.2421875 C343.00054043 42.26014253 355.80598388 48.53467634 365.49609375 57.8359375 C375.88471532 69.25081804 379.36651468 81.90190576 379.2646637 97.06880188 C379.27000126 98.41728556 379.27707385 99.76576327 379.28571075 101.11422986 C379.30420556 104.78660333 379.29807913 108.45856993 379.28755772 112.13095939 C379.28052783 116.10452252 379.29659234 120.07800521 379.30955505 124.05154419 C379.33113827 131.8234647 379.33108261 139.59523847 379.32292951 147.36717907 C379.31661534 153.68828884 379.31777951 160.00935598 379.32420158 166.33046532 C379.32510324 167.23205172 379.32600489 168.13363812 379.32693387 169.06254533 C379.32878519 170.89445996 379.33064775 172.72637458 379.33252143 174.55828919 C379.34908057 191.71695922 379.34039725 208.8755469 379.32353585 226.03421196 C379.30884547 241.70794767 379.32346131 257.38149157 379.35230602 273.05520258 C379.3817497 289.1753027 379.39265751 305.29531445 379.38312382 321.41544026 C379.38210134 323.24132262 379.38110672 325.067205 379.3801403 326.89308739 C379.37942572 328.24040767 379.37942572 328.24040767 379.3786967 329.61494655 C379.37653886 335.92142052 379.38630312 342.22781022 379.40091133 348.53426552 C379.41849027 356.23014803 379.41823816 363.92578628 379.39555968 371.62165944 C379.38446685 375.54264159 379.38114096 379.46319429 379.39986038 383.38415718 C379.50029576 406.10761271 378.40263981 424.00891476 362.1875 441.5 C347.61574236 455.32448802 330.08491051 458.94844458 310.58325195 458.82043457 C309.02166573 458.82505697 307.46008388 458.83141878 305.89851093 458.83934355 C301.65563406 458.85587642 297.41312202 458.84786461 293.17024469 458.83539867 C288.57574278 458.82628398 283.98130013 458.84034948 279.3868103 458.85131836 C270.40524399 458.86904015 261.4238119 458.86529198 252.44224048 458.8536678 C245.13820981 458.84460868 237.83421657 458.84342016 230.53018188 458.84776306 C229.48788274 458.84837599 228.4455836 458.84898893 227.37169963 458.84962043 C225.25382987 458.85089942 223.13596011 458.85219628 221.01809037 458.8535108 C201.19115634 458.86489802 181.36429648 458.85183209 161.53737462 458.83030933 C144.55059544 458.81244005 127.56392564 458.81554468 110.57714844 458.83398438 C90.81779654 458.85542395 71.05850952 458.86379956 51.29914761 458.85153532 C49.18937112 458.85026122 47.07959462 458.84900373 44.96981812 458.84776306 C43.93195563 458.84714596 42.89409315 458.84652886 41.82478029 458.84589306 C34.53540277 458.84244941 27.24606666 458.84824718 19.95669556 458.85768127 C11.06495459 458.868937 2.17335474 458.86578639 -6.7183702 458.8445583 C-11.24903863 458.8340958 -15.77947237 458.82984342 -20.3101387 458.84315491 C-24.46778421 458.85518505 -28.62498028 458.84834397 -32.78258574 458.8272447 C-34.27632129 458.82282314 -35.77009583 458.82494305 -37.26380575 458.83474785 C-55.83506543 458.94717793 -72.15770481 454.78725765 -85.8984375 441.72265625 C-93.12897862 434.31195214 -97.89568702 427.15441833 -101.25 417.3125 C-101.76769754 415.89570875 -101.76769754 415.89570875 -102.29585361 414.45029545 C-103.87729913 408.80833626 -103.53545149 402.96221023 -103.52415466 397.15074158 C-103.52861089 395.80586515 -103.5339262 394.46099134 -103.54002339 393.11612135 C-103.55416811 389.43063038 -103.55586735 385.74522389 -103.55542648 382.05970967 C-103.55707784 378.08064167 -103.57015042 374.10160816 -103.58161926 370.12255859 C-103.60444502 361.42602993 -103.61238746 352.7295257 -103.61744571 344.03297114 C-103.62070595 338.59863787 -103.62723046 333.16431165 -103.6344471 327.72998238 C-103.6540109 312.67213514 -103.67041605 297.61429445 -103.67332363 282.55643368 C-103.6735112 281.59329251 -103.67369877 280.63015135 -103.67389202 279.63782409 C-103.67425827 277.68544805 -103.67462196 275.73307201 -103.67498314 273.78069597 C-103.67516595 272.81158436 -103.67534876 271.84247276 -103.67553711 270.84399414 C-103.67571766 269.87369397 -103.67589821 268.90339379 -103.67608423 267.90369058 C-103.67962398 252.19017286 -103.70663489 236.47679233 -103.744035 220.76332217 C-103.78216086 204.61514842 -103.80148143 188.46704266 -103.80178314 172.31882292 C-103.8023668 163.25842357 -103.81079913 154.19818784 -103.83978081 145.13783073 C-103.86435213 137.42095731 -103.871539 129.70430719 -103.85653328 121.98740517 C-103.84938745 118.05441618 -103.8501202 114.1218676 -103.87294388 110.1889286 C-103.89368957 106.57927327 -103.89079077 102.97039255 -103.87006903 99.36074419 C-103.8649781 97.45567195 -103.88423365 95.55058095 -103.90473074 93.64561218 C-103.76232544 78.8480668 -98.27966792 67.17822879 -88.44921875 56.32421875 C-77.9641224 46.19835482 -64.46749013 42.17780799 -50.25 42.3125 C-50.27094727 41.70365967 -50.29189453 41.09481934 -50.31347656 40.4675293 C-51.07602041 14.95850719 -51.07602041 14.95850719 -42.625 4.4375 C-31.37045046 -7.30088999 -13.42853267 -9.38718379 0 0 Z M-33.125 14.25 C-36.39246007 18.95898658 -37.49821165 22.54017857 -37.54052734 28.26098633 C-37.55328705 29.43603226 -37.56604675 30.61107819 -37.57919312 31.82173157 C-37.58141876 33.08325546 -37.58364441 34.34477936 -37.5859375 35.64453125 C-37.5925943 36.95024582 -37.5992511 38.25596039 -37.60610962 39.60124207 C-37.61806192 42.36253159 -37.62179266 45.12369621 -37.62060547 47.88500977 C-37.62040259 51.40548176 -37.6476803 54.92514369 -37.68214989 58.44542408 C-37.70987804 61.82430384 -37.70857109 65.20303939 -37.7109375 68.58203125 C-37.72530853 69.83748245 -37.73967957 71.09293365 -37.75448608 72.38642883 C-37.71498458 79.9904685 -37.26381866 86.01366543 -31.83798218 91.82478333 C-27.80128204 95.43077668 -24.25809271 97.08516875 -18.9375 97.6875 C-13.00364423 97.08405704 -8.34220719 94.89061525 -4.375 90.375 C-1.10753993 85.66601342 -0.00178835 82.08482143 0.04052734 76.36401367 C0.05328705 75.18896774 0.06604675 74.01392181 0.07919312 72.80326843 C0.08141876 71.54174454 0.08364441 70.28022064 0.0859375 68.98046875 C0.0925943 67.67475418 0.0992511 66.36903961 0.10610962 65.02375793 C0.11806192 62.26246841 0.12179266 59.50130379 0.12060547 56.73999023 C0.12040259 53.21951824 0.1476803 49.69985631 0.18214989 46.17957592 C0.20987804 42.80069616 0.20857109 39.42196061 0.2109375 36.04296875 C0.22530853 34.78751755 0.23967957 33.53206635 0.25448608 32.23857117 C0.21498458 24.6345315 -0.23618134 18.61133457 -5.66201782 12.80021667 C-9.69871796 9.19422332 -13.24190729 7.53983125 -18.5625 6.9375 C-24.49635577 7.54094296 -29.15779281 9.73438475 -33.125 14.25 Z M70.75 14.3125 C67.6938968 19.55153405 66.63149812 23.77509717 66.58886719 29.78027344 C66.57925964 30.87531189 66.5696521 31.97035034 66.55975342 33.09857178 C66.55550354 34.27776184 66.55125366 35.4569519 66.546875 36.671875 C66.54117493 37.89022034 66.53547485 39.10856567 66.52960205 40.36383057 C66.5201558 42.9427402 66.51361956 45.52166188 66.50976562 48.10058594 C66.50007168 52.03341915 66.46904844 55.96572717 66.4375 59.8984375 C66.43096852 62.4062469 66.42571862 64.91406004 66.421875 67.421875 C66.4095282 68.59296814 66.3971814 69.76406128 66.38446045 70.97064209 C66.40576821 78.83492099 67.18933417 85.14046116 72 91.625 C76.04062388 95.57379152 79.65414132 97.08794371 85.25 97.6875 C91.96371513 96.96817338 96.43537092 94.46608473 100.75 89.3125 C103.23407012 85.04683124 104.12720452 81.9571169 104.13818359 77.03515625 C104.14764008 75.81368896 104.15709656 74.59222168 104.1668396 73.33374023 C104.16076691 72.02735596 104.15469421 70.72097168 104.1484375 69.375 C104.15046105 68.0078923 104.15337482 66.64078566 104.15713501 65.27368164 C104.16154521 62.41574778 104.15516984 59.55809622 104.14111328 56.70019531 C104.12402172 53.04850287 104.13386998 49.39747204 104.15183067 45.74580383 C104.16270411 42.92495801 104.15920598 40.10426741 104.1514473 37.28341675 C104.14849083 35.28602669 104.15755487 33.28863044 104.1668396 31.29125977 C104.15738312 30.06979248 104.14792664 28.8483252 104.13818359 27.58984375 C104.13460342 25.98484009 104.13460342 25.98484009 104.13095093 24.34741211 C103.37054263 18.28948661 100.34229411 14.17420186 95.75 10.3125 C86.42224653 5.39422999 78.36980023 6.90436089 70.75 14.3125 Z M177 12.625 C173.01220645 17.38819785 171.37997382 21.43033303 171.31420898 27.6340332 C171.29506943 28.86583817 171.27592987 30.09764313 171.25621033 31.36677551 C171.25287186 32.68562241 171.24953339 34.0044693 171.24609375 35.36328125 C171.23643881 36.74562381 171.22634532 38.12796336 171.21583557 39.51029968 C171.19791942 42.4026906 171.19230972 45.29481341 171.1940918 48.18725586 C171.19439618 51.87277144 171.15347225 55.5565467 171.10177517 59.24165058 C171.06822409 62.09610199 171.06233989 64.95014122 171.06392097 67.80476952 C171.05871325 69.81710571 171.02631031 71.8293132 170.99327087 73.84138489 C171.05326178 81.90913094 172.14733844 87.30523221 177.75 93.3125 C182.77245765 97.1391344 187.50550212 97.83287482 193.75 97.3125 C199.61338974 95.36175246 203.3441935 92.42120975 206.75 87.3125 C209.22479981 80.85133626 209.05614991 74.51499085 209.05078125 67.66015625 C209.05720894 65.83900551 209.05720894 65.83900551 209.06376648 63.98106384 C209.06949529 61.42008079 209.07002076 58.85908147 209.06567383 56.2980957 C209.0625136 52.39180617 209.08599356 48.48627417 209.11132812 44.58007812 C209.11360131 42.08593845 209.11430453 39.59179675 209.11328125 37.09765625 C209.122491 35.93597427 209.13170074 34.7742923 209.14118958 33.57740784 C209.09191068 24.89089795 208.06564327 17.81389748 201.75 11.3125 C194.08626256 5.00118682 184.19116465 6.57788427 177 12.625 Z M279.875 14.25 C276.60753993 18.95898658 275.50178835 22.54017857 275.45947266 28.26098633 C275.44671295 29.43603226 275.43395325 30.61107819 275.42080688 31.82173157 C275.41858124 33.08325546 275.41635559 34.34477936 275.4140625 35.64453125 C275.4074057 36.95024582 275.4007489 38.25596039 275.39389038 39.60124207 C275.38193808 42.36253159 275.37820734 45.12369621 275.37939453 47.88500977 C275.37959741 51.40548176 275.3523197 54.92514369 275.31785011 58.44542408 C275.29012196 61.82430384 275.29142891 65.20303939 275.2890625 68.58203125 C275.27469147 69.83748245 275.26032043 71.09293365 275.24551392 72.38642883 C275.28501542 79.9904685 275.73618134 86.01366543 281.16201782 91.82478333 C285.19871796 95.43077668 288.74190729 97.08516875 294.0625 97.6875 C299.99635577 97.08405704 304.65779281 94.89061525 308.625 90.375 C311.89246007 85.66601342 312.99821165 82.08482143 313.04052734 76.36401367 C313.05328705 75.18896774 313.06604675 74.01392181 313.07919312 72.80326843 C313.08141876 71.54174454 313.08364441 70.28022064 313.0859375 68.98046875 C313.0925943 67.67475418 313.0992511 66.36903961 313.10610962 65.02375793 C313.11806192 62.26246841 313.12179266 59.50130379 313.12060547 56.73999023 C313.12040259 53.21951824 313.1476803 49.69985631 313.18214989 46.17957592 C313.20987804 42.80069616 313.20857109 39.42196061 313.2109375 36.04296875 C313.22530853 34.78751755 313.23967957 33.53206635 313.25448608 32.23857117 C313.21498458 24.6345315 312.76381866 18.61133457 307.33798218 12.80021667 C303.30128204 9.19422332 299.75809271 7.53983125 294.4375 6.9375 C288.50364423 7.54094296 283.84220719 9.73438475 279.875 14.25 Z M-79.48046875 66.28125 C-98.89960302 86.39262358 -91.25 120.10592759 -91.25 144.3125 C59.56 144.3125 210.37 144.3125 365.75 144.3125 C370.19511992 102.46215279 370.19511992 102.46215279 354.75 66.3125 C346.25934334 58.54961391 337.12409871 55.2594739 325.75 55.3125 C325.73598145 56.54383667 325.73598145 56.54383667 325.72167969 57.80004883 C325.67717987 60.89998492 325.61535424 63.99899953 325.54248047 67.09838867 C325.50099079 69.07773235 325.47877488 71.05745031 325.45703125 73.03710938 C325.18151758 83.9198994 323.53684071 93.46921399 315.81640625 101.58984375 C308.69441073 107.52708388 300.84924644 109.70715662 291.7578125 109.5859375 C283.00805042 108.79050458 275.39146245 105.07969645 269.75 98.3125 C265.5025209 91.43815104 263.68050706 85.62044419 263.43359375 77.578125 C263.39548584 76.41055664 263.35737793 75.24298828 263.31811523 74.04003906 C263.27501221 72.56245117 263.23190918 71.08486328 263.1875 69.5625 C263.043125 64.86 262.89875 60.1575 262.75 55.3125 C249.22 55.3125 235.69 55.3125 221.75 55.3125 C221.50149973 63.46347566 221.50149973 63.46347566 221.27197266 71.61499023 C220.8968529 82.49940406 219.74353974 91.59216033 212.75 100.3125 C207.47062944 105.09748134 201.90214082 108.5632281 194.75 109.3125 C193.98042969 109.39371094 193.21085937 109.47492188 192.41796875 109.55859375 C183.74735887 110.00919237 175.98763845 107.52281993 169.3125 101.9375 C162.31005047 95.22144922 159.5751667 88.5942234 159.3359375 78.9453125 C159.28252197 77.07963623 159.28252197 77.07963623 159.22802734 75.17626953 C159.19402832 73.61247559 159.1600293 72.04868164 159.125 70.4375 C159.00125 65.44625 158.8775 60.455 158.75 55.3125 C144.89 55.3125 131.03 55.3125 116.75 55.3125 C116.5799852 65.10896809 116.5799852 65.10896809 116.45214844 74.90600586 C116.18573917 85.66403264 114.25803444 93.46714308 106.81640625 101.51953125 C100.05136629 107.38938634 92.24070824 109.6612853 83.46484375 109.51953125 C74.87977191 108.86484232 67.61283203 105.70119673 61.75 99.3125 C56.93238624 91.67111683 54.73135453 84.89332933 54.43359375 75.91796875 C54.39548584 74.83410889 54.35737793 73.75024902 54.31811523 72.63354492 C54.27501221 71.2694751 54.23190918 69.90540527 54.1875 68.5 C53.9709375 61.9721875 53.9709375 61.9721875 53.75 55.3125 C40.22 55.3125 26.69 55.3125 12.75 55.3125 C12.58017381 64.36065606 12.58017381 64.36065606 12.45214844 73.40942383 C12.16612862 84.15398426 10.43426345 93.59027737 2.8125 101.58984375 C-4.76428728 107.91818313 -13.55821798 110.14322417 -23.25 109.3125 C-32.49975445 107.62291637 -39.19583536 103.57287353 -44.625 95.875 C-48.41606564 90.12486413 -49.48270294 84.08613994 -49.6640625 77.28515625 C-49.72207031 75.35639648 -49.72207031 75.35639648 -49.78125 73.38867188 C-49.81269499 72.05078582 -49.84394259 70.71289511 -49.875 69.375 C-49.91324342 68.00974244 -49.9522987 66.64450736 -49.9921875 65.27929688 C-50.08609937 61.9571646 -50.17177787 58.63503259 -50.25 55.3125 C-61.55990553 55.21832651 -70.93220314 58.73602081 -79.48046875 66.28125 Z M-91.25 156.3125 C-91.29125 195.95375 -91.3325 235.595 -91.375 276.4375 C-91.39320801 288.94414551 -91.41141602 301.45079102 -91.43017578 314.33642578 C-91.43686556 325.56883185 -91.43686556 325.56883185 -91.44088745 336.80123901 C-91.44274715 341.79564194 -91.45022791 346.79000214 -91.46115112 351.78439331 C-91.47492079 358.16528711 -91.47897275 364.54611923 -91.47614455 370.92702651 C-91.47673551 373.26241392 -91.48067076 375.59780359 -91.48843026 377.93317819 C-91.76500283 406.99759966 -91.76500283 406.99759966 -77.6875 431.75 C-65.13573402 443.36421029 -50.58172592 445.61922571 -34.04997253 445.57319641 C-32.50808013 445.57622009 -30.96618924 445.58011065 -29.42430097 445.58478898 C-25.20358785 445.59504994 -20.98295985 445.59289201 -16.76223981 445.58860838 C-12.20383441 445.58613769 -7.64544932 445.59515961 -3.08705139 445.60264587 C5.83728009 445.61538556 14.76158147 445.61718746 23.68592051 445.61484561 C30.94151824 445.6130614 38.19710684 445.61481431 45.45270348 445.61907005 C46.4860045 445.61966524 47.51930552 445.62026043 48.58391869 445.62087366 C50.68319411 445.62208543 52.78246953 445.62329956 54.88174494 445.62451603 C74.5625742 445.63538886 94.24338631 445.63323035 113.92421653 445.62713119 C131.91836885 445.62196284 149.91246701 445.63321576 167.90660862 445.65222941 C186.39395949 445.67161406 204.88128475 445.67986267 223.36864585 445.67610615 C233.74346587 445.67419499 244.11823981 445.67667339 254.49305153 445.69082069 C263.32576021 445.70274348 272.15839444 445.70412933 280.99110416 445.69203053 C285.49486935 445.68614804 289.99849842 445.68502497 294.50225449 445.69703293 C298.63090383 445.70791255 302.75930378 445.70476377 306.88794156 445.69077124 C308.37576304 445.68813002 309.86360419 445.69047268 311.35140631 445.69850711 C327.34501277 445.77883149 340.93636553 442.9103148 353 431.8125 C368.3311892 415.50480194 367.0465175 395.41567059 366.97705078 374.50830078 C366.97643722 372.08361759 366.97670661 369.65893405 366.9777813 367.23425102 C366.97823051 360.77496685 366.96668746 354.31575766 366.95256042 347.85649109 C366.94112174 341.78249897 366.94063153 335.70852455 366.93920898 329.63452148 C366.92873841 311.90217116 366.90081591 294.16983462 366.875 276.4375 C366.83375 236.79625 366.7925 197.155 366.75 156.3125 C215.61 156.3125 64.47 156.3125 -91.25 156.3125 Z " fill="#fb923c" transform="translate(118.25,29.6875)"/>
<path d="M0 0 C1.41937191 -0.02973886 2.83948526 -0.03166712 4.2590332 -0.01205444 C5.03493805 -0.02081604 5.8108429 -0.02957764 6.61026001 -0.03860474 C9.17734553 -0.06062797 11.74271118 -0.04603702 14.30981445 -0.02914429 C16.091963 -0.03251161 17.87410932 -0.03736353 19.65625 -0.04364014 C23.39223077 -0.05101538 27.12761404 -0.04028533 30.86352539 -0.01693726 C35.65591486 0.01155132 40.44690447 -0.00484922 45.23924255 -0.03479958 C48.91958187 -0.0528552 52.59958849 -0.0471226 56.27993774 -0.03416061 C58.04700892 -0.03082177 59.81411017 -0.03493046 61.58114624 -0.04655838 C64.05011142 -0.05923922 66.51680042 -0.03993233 68.9855957 -0.01205444 C69.71815582 -0.0221756 70.45071594 -0.03229675 71.20547485 -0.04272461 C73.24462891 0 73.24462891 0 76.62231445 0.63491821 C80.07632284 4.30079172 80.04826028 8.29477249 79.99462891 13.09976196 C79.99827957 13.83373199 80.00193024 14.56770203 80.00569153 15.32391357 C80.01377073 17.74032014 80.00020928 20.15605053 79.9855957 22.57241821 C79.98507678 24.25723266 79.98559573 25.94204772 79.98710632 27.62686157 C79.98701672 31.1540534 79.97661121 34.68101612 79.95849609 38.2081604 C79.93580936 42.72414256 79.9352661 47.23979013 79.94201374 51.7558136 C79.9453589 55.23370322 79.93871332 58.71151689 79.92888451 62.18939209 C79.92504166 63.85432538 79.92388049 65.51926713 79.92547035 67.1842041 C79.92584217 69.51299064 79.9131885 71.84135196 79.89697266 74.17007446 C79.89945007 74.85489899 79.90192749 75.53972351 79.90447998 76.24530029 C79.86146564 80.12564008 79.44630859 83.1840438 77.62231445 86.63491821 C74.63084888 88.130651 71.56331783 87.78225411 68.28271484 87.78018188 C67.52646317 87.7835405 66.77021149 87.78689911 65.99104309 87.7903595 C63.48400238 87.79988063 60.97702838 87.80181316 58.4699707 87.80288696 C56.73123649 87.80609864 54.99250256 87.80946264 53.25376892 87.81297302 C49.60618462 87.81896713 45.95862403 87.82081262 42.31103516 87.82022095 C37.63225947 87.82011929 32.9536354 87.83377435 28.27489567 87.85099316 C24.68301187 87.86209991 21.09116489 87.86414057 17.49926567 87.86361122 C15.77405716 87.86479323 14.04884775 87.86922733 12.32365608 87.87694359 C9.91276487 87.88671724 7.50220489 87.88387599 5.09130859 87.87783813 C4.37587891 87.88345764 3.66044922 87.88907715 2.92333984 87.89486694 C-0.74125217 87.8714902 -2.23931718 87.72716379 -5.37768555 85.63491821 C-6.54766589 82.12497718 -6.53299761 78.95737924 -6.53881836 75.30532837 C-6.54378326 74.56189682 -6.54874817 73.81846527 -6.55386353 73.05250549 C-6.56846909 70.59298782 -6.57528425 68.13353463 -6.58081055 65.67398071 C-6.58656306 63.96388752 -6.59232079 62.25379434 -6.5980835 60.54370117 C-6.60858873 56.95756734 -6.61443461 53.37145589 -6.61791992 49.78530884 C-6.62340545 45.19300898 -6.64743663 40.6010055 -6.67589188 36.0087986 C-6.69452645 32.47602476 -6.69972428 28.94332222 -6.7012558 25.41050339 C-6.70428071 23.71763869 -6.71230383 22.0247752 -6.72544098 20.33195877 C-6.74251985 17.96217615 -6.74061708 15.59311653 -6.73413086 13.22329712 C-6.74334564 12.52597977 -6.75256042 11.82866241 -6.76205444 11.11021423 C-6.7124571 5.31768346 -6.20299472 1.16600384 0 0 Z M6.62231445 13.63491821 C6.62231445 33.76491821 6.62231445 53.89491821 6.62231445 74.63491821 C26.42231445 74.63491821 46.22231445 74.63491821 66.62231445 74.63491821 C66.62231445 54.50491821 66.62231445 34.37491821 66.62231445 13.63491821 C46.82231445 13.63491821 27.02231445 13.63491821 6.62231445 13.63491821 Z " fill="#fb923c" transform="translate(216.377685546875,344.3650817871094)"/>
<path d="M0 0 C0.76615128 -0.00525696 1.53230255 -0.01051392 2.32167053 -0.01593018 C4.85593003 -0.02914141 7.38956216 -0.02038839 9.92382812 -0.01025391 C11.68355429 -0.01227433 13.44327964 -0.01518549 15.20300293 -0.01895142 C18.891764 -0.02337628 22.58030721 -0.01693855 26.26904297 -0.00292969 C31.00059094 0.01416236 35.73162842 0.00432204 40.46315765 -0.01364708 C44.09710547 -0.02448057 47.73093198 -0.02104059 51.36488342 -0.0132637 C53.10962484 -0.01126049 54.85437722 -0.01372522 56.59910583 -0.02070236 C59.03641998 -0.0283098 61.47290404 -0.01672324 63.91015625 0 C64.63336563 -0.00607269 65.35657501 -0.01214539 66.10169983 -0.0184021 C68.82217114 0.01623074 70.97870806 0.13346607 73.40237427 1.42941284 C75.06967115 4.53175958 74.87137535 7.68201119 74.84326172 11.11669922 C74.84851868 11.90235764 74.85377563 12.68801605 74.85919189 13.4974823 C74.87240479 16.0966678 74.86364947 18.69524177 74.85351562 21.29443359 C74.85553599 23.09900022 74.85844712 24.90356605 74.86221313 26.70812988 C74.86663823 30.49104583 74.86019951 34.27374935 74.84619141 38.05664062 C74.82909937 42.90925251 74.83893957 47.76136665 74.8569088 52.61396027 C74.86774166 56.34055339 74.8643026 60.06702822 74.85652542 63.79362488 C74.85452203 65.58302367 74.85698754 67.37243315 74.86396408 69.16181946 C74.87157045 71.66139232 74.85998633 74.16015552 74.84326172 76.65966797 C74.84933441 77.40157883 74.8554071 78.14348969 74.86166382 78.90788269 C74.82730409 81.67525177 74.72736573 83.88179337 73.40237427 86.34596252 C70.35255763 87.97826852 67.28466428 87.8132411 63.91015625 87.79223633 C63.14400497 87.79909958 62.3778537 87.80596283 61.58848572 87.81303406 C59.05424505 87.83134589 56.52062079 87.82745886 53.98632812 87.82177734 C52.22660113 87.82633673 50.46687592 87.83164158 48.70715332 87.83766174 C45.01839973 87.8466012 41.32986256 87.84415991 37.64111328 87.83422852 C32.90946057 87.82273182 28.17855334 87.84295647 23.4469986 87.87214565 C19.8130416 87.89047329 16.17926443 87.8902222 12.54527283 87.88450813 C10.80052138 87.88435453 9.05575803 87.89043119 7.31105042 87.90279961 C4.87355473 87.91764525 2.4374515 87.90708176 0 87.88989258 C-0.72320938 87.89956055 -1.44641876 87.90922852 -2.19154358 87.91918945 C-5.20661203 87.87456899 -7.09419847 87.74624625 -9.49221802 85.84121704 C-10.94982644 82.44466616 -10.96336158 79.26987754 -10.93310547 75.63793945 C-10.93836243 74.86188858 -10.94361938 74.08583771 -10.94903564 73.28627014 C-10.96222332 70.72498358 -10.95350302 68.16432006 -10.94335938 65.60302734 C-10.94538026 63.82231019 -10.94829183 62.04159384 -10.95205688 60.26087952 C-10.95647838 56.53101716 -10.95005405 52.80137048 -10.93603516 49.0715332 C-10.9189309 44.28732895 -10.9287933 39.50362913 -10.94675255 34.71944332 C-10.95758452 31.04346402 -10.95414698 27.36760466 -10.94636917 23.69162178 C-10.94436618 21.92734276 -10.94682991 20.1630529 -10.95380783 18.39878654 C-10.96141412 15.93524116 -10.94983084 13.47251728 -10.93310547 11.0090332 C-10.93917816 10.27804413 -10.94525085 9.54705505 -10.95150757 8.79391479 C-10.91694417 6.05042466 -10.80837453 3.87670707 -9.49221802 1.43614197 C-6.44307126 -0.20478917 -3.3765162 -0.02835216 0 0 Z M2.45507812 13.38818359 C2.45507812 33.51818359 2.45507812 53.64818359 2.45507812 74.38818359 C21.92507813 74.38818359 41.39507812 74.38818359 61.45507812 74.38818359 C61.45507812 54.25818359 61.45507812 34.12818359 61.45507812 13.38818359 C41.98507812 13.38818359 22.51507813 13.38818359 2.45507812 13.38818359 Z " fill="#fb923c" transform="translate(352.544921875,344.61181640625)"/>
<path d="M0 0 C0.76615128 -0.00686325 1.53230255 -0.0137265 2.32167053 -0.02079773 C4.8559112 -0.03910956 7.38953546 -0.03522253 9.92382812 -0.02954102 C11.68355512 -0.0341004 13.44328033 -0.03940525 15.20300293 -0.04542542 C18.89175652 -0.05436487 22.58029369 -0.05192358 26.26904297 -0.04199219 C31.00069568 -0.03049549 35.73160291 -0.05072014 40.46315765 -0.07990932 C44.09711465 -0.09823696 47.73089182 -0.09798587 51.36488342 -0.0922718 C53.10963487 -0.0921182 54.85439822 -0.09819486 56.59910583 -0.11056328 C59.03660152 -0.12540892 61.47270475 -0.11484543 63.91015625 -0.09765625 C64.63336563 -0.10732422 65.35657501 -0.11699219 66.10169983 -0.12695312 C69.12125105 -0.08226632 71.00455763 0.04459444 73.40237427 1.95774841 C74.84938984 5.32036596 74.87368224 8.44966941 74.84326172 12.04663086 C74.84851868 12.81132187 74.85377563 13.57601288 74.85919189 14.36387634 C74.8723799 16.88789382 74.86365832 19.411279 74.85351562 21.93530273 C74.85553671 23.69120403 74.85844844 25.44710451 74.86221313 27.20300293 C74.86663485 30.88159178 74.86021037 34.55996197 74.84619141 38.23852539 C74.82909955 42.95313166 74.83894155 47.66722558 74.8569088 52.38181305 C74.86775077 56.00722105 74.86429841 59.63250765 74.85652542 63.25791931 C74.85452456 64.99625204 74.85697871 66.7345958 74.86396408 68.47291565 C74.87158545 70.90273222 74.85996535 73.33171976 74.84326172 75.76147461 C74.84933441 76.47951767 74.8554071 77.19756073 74.86166382 77.93736267 C74.8245963 80.84877384 74.55760735 83.16579228 73.40237427 85.85035706 C70.45932946 88.19853405 67.51439955 87.95394377 63.91015625 87.90576172 C63.14400497 87.9111647 62.3778537 87.91656769 61.58848572 87.9221344 C59.05404112 87.93464955 56.52072637 87.91811311 53.98632812 87.90014648 C52.22660258 87.90030141 50.46687669 87.90178929 48.70715332 87.90455627 C45.01831995 87.90594151 41.32987481 87.89336161 37.64111328 87.87060547 C32.90954255 87.84222032 28.17861707 87.84495642 23.4469986 87.85769558 C19.81303381 87.86464617 16.17921852 87.8568706 12.54527283 87.84443855 C10.80053785 87.83991801 9.05578686 87.83959251 7.31105042 87.84350395 C4.87369824 87.84641015 2.43723938 87.82993847 0 87.80810547 C-0.72320938 87.81260712 -1.44641876 87.81710876 -2.19154358 87.82174683 C-4.91122981 87.78120925 -7.06991941 87.65828092 -9.49221802 86.36183167 C-11.159989 83.26017409 -10.96121549 80.10978485 -10.93310547 76.67553711 C-10.93836243 75.88987869 -10.94361938 75.10422028 -10.94903564 74.29475403 C-10.96224854 71.69556853 -10.95349322 69.09699456 -10.94335938 66.49780273 C-10.94537974 64.69323611 -10.94829087 62.88867027 -10.95205688 61.08410645 C-10.95648198 57.30119049 -10.95004326 53.51848698 -10.93603516 49.7355957 C-10.91894312 44.88298382 -10.92878332 40.03086968 -10.94675255 35.17827606 C-10.95758541 31.45168294 -10.95414635 27.72520811 -10.94636917 23.99861145 C-10.94436578 22.20921266 -10.94683129 20.41980318 -10.95380783 18.63041687 C-10.9614142 16.13084401 -10.94983008 13.63208081 -10.93310547 11.13256836 C-10.93917816 10.3906575 -10.94525085 9.64874664 -10.95150757 8.88435364 C-10.91714784 6.11698456 -10.81720948 3.91044296 -9.49221802 1.4462738 C-6.44240138 -0.18603219 -3.37450803 -0.02100477 0 0 Z M2.45507812 13.40405273 C2.45507812 33.53405273 2.45507812 53.66405273 2.45507812 74.40405273 C21.92507812 74.40405273 41.39507812 74.40405273 61.45507812 74.40405273 C61.45507812 54.27405273 61.45507812 34.14405273 61.45507812 13.40405273 C41.98507813 13.40405273 22.51507813 13.40405273 2.45507812 13.40405273 Z " fill="#fb923c" transform="translate(89.544921875,344.595947265625)"/>
<path d="M0 0 C0.76615128 -0.00540298 1.53230255 -0.01080597 2.32167053 -0.01637268 C4.85611513 -0.02888783 7.38942988 -0.01235139 9.92382812 0.00561523 C11.68355367 0.00546031 13.44327956 0.00397242 15.20300293 0.00120544 C18.8918363 -0.00017979 22.58028144 0.01240011 26.26904297 0.03515625 C31.0006137 0.0635414 35.73153918 0.0608053 40.46315765 0.04806614 C44.09712244 0.04111555 47.73093773 0.04889111 51.36488342 0.06132317 C53.1096184 0.06584371 54.85436939 0.06616921 56.59910583 0.06225777 C59.03645801 0.05935157 61.47291687 0.07582324 63.91015625 0.09765625 C64.99497032 0.09090378 64.99497032 0.09090378 66.10169983 0.08401489 C68.82138606 0.12455247 70.98007566 0.2474808 73.40237427 1.54393005 C75.07014525 4.64558763 74.87137174 7.79597687 74.84326172 11.23022461 C74.84851868 12.01588303 74.85377563 12.80154144 74.85919189 13.61100769 C74.87240479 16.21019319 74.86364947 18.80876716 74.85351562 21.40795898 C74.85553599 23.21252561 74.85844712 25.01709144 74.86221313 26.82165527 C74.86663823 30.60457122 74.86019951 34.38727474 74.84619141 38.17016602 C74.82909937 43.0227779 74.83893957 47.87489204 74.8569088 52.72748566 C74.86774166 56.45407878 74.8643026 60.18055361 74.85652542 63.90715027 C74.85452203 65.69654906 74.85698754 67.48595854 74.86396408 69.27534485 C74.87157045 71.77491771 74.85998633 74.27368091 74.84326172 76.77319336 C74.84933441 77.51510422 74.8554071 78.25701508 74.86166382 79.02140808 C74.82730409 81.78877716 74.72736573 83.99531876 73.40237427 86.45948792 C70.35255763 88.09179391 67.28466428 87.92676649 63.91015625 87.90576172 C63.14400497 87.91262497 62.3778537 87.91948822 61.58848572 87.92655945 C59.05424505 87.94487128 56.52062079 87.94098425 53.98632812 87.93530273 C52.22660113 87.93986212 50.46687592 87.94516697 48.70715332 87.95118713 C45.01839973 87.96012659 41.32986256 87.9576853 37.64111328 87.94775391 C32.90946057 87.93625721 28.17855334 87.95648186 23.4469986 87.98567104 C19.8130416 88.00399868 16.17926443 88.00374759 12.54527283 87.99803352 C10.80052138 87.99787992 9.05575803 88.00395658 7.31105042 88.016325 C4.87355473 88.03117064 2.4374515 88.02060715 0 88.00341797 C-0.72320938 88.01308594 -1.44641876 88.02275391 -2.19154358 88.03271484 C-5.2110948 87.98802804 -7.09440138 87.86116728 -9.49221802 85.94801331 C-10.93923359 82.58539576 -10.96352599 79.45609231 -10.93310547 75.85913086 C-10.93836243 75.09443985 -10.94361938 74.32974884 -10.94903564 73.54188538 C-10.96222365 71.0178679 -10.95350207 68.49448271 -10.94335938 65.97045898 C-10.94538046 64.21455769 -10.94829219 62.45865721 -10.95205688 60.70275879 C-10.9564786 57.02416994 -10.95005412 53.34579975 -10.93603516 49.66723633 C-10.9189433 44.95263006 -10.9287853 40.23853614 -10.94675255 35.52394867 C-10.95759452 31.89854067 -10.95414216 28.27325407 -10.94636917 24.64784241 C-10.94436831 22.90950968 -10.94682246 21.17116592 -10.95380783 19.43284607 C-10.9614292 17.0030295 -10.9498091 14.57404196 -10.93310547 12.14428711 C-10.93917816 11.42624405 -10.94525085 10.70820099 -10.95150757 9.96839905 C-10.91444005 7.05698788 -10.6474511 4.73996943 -9.49221802 2.05540466 C-6.54917321 -0.29277233 -3.6042433 -0.04818205 0 0 Z M2.45507812 13.50170898 C2.45507812 33.63170898 2.45507812 53.76170898 2.45507812 74.50170898 C21.92507813 74.50170898 41.39507812 74.50170898 61.45507812 74.50170898 C61.45507812 54.37170898 61.45507812 34.24170898 61.45507812 13.50170898 C41.98507812 13.50170898 22.51507813 13.50170898 2.45507812 13.50170898 Z " fill="#fb923c" transform="translate(352.544921875,220.498291015625)"/>
<path d="M0 0 C0.76615128 -0.00686325 1.53230255 -0.0137265 2.32167053 -0.02079773 C4.8559112 -0.03910956 7.38953546 -0.03522253 9.92382812 -0.02954102 C11.68355512 -0.0341004 13.44328033 -0.03940525 15.20300293 -0.04542542 C18.89175652 -0.05436487 22.58029369 -0.05192358 26.26904297 -0.04199219 C31.00069568 -0.03049549 35.73160291 -0.05072014 40.46315765 -0.07990932 C44.09711465 -0.09823696 47.73089182 -0.09798587 51.36488342 -0.0922718 C53.10963487 -0.0921182 54.85439822 -0.09819486 56.59910583 -0.11056328 C59.03660152 -0.12540892 61.47270475 -0.11484543 63.91015625 -0.09765625 C64.63336563 -0.10732422 65.35657501 -0.11699219 66.10169983 -0.12695312 C69.12125105 -0.08226632 71.00455763 0.04459444 73.40237427 1.95774841 C74.84938984 5.32036596 74.87368224 8.44966941 74.84326172 12.04663086 C74.84851868 12.81132187 74.85377563 13.57601288 74.85919189 14.36387634 C74.8723799 16.88789382 74.86365832 19.411279 74.85351562 21.93530273 C74.85553671 23.69120403 74.85844844 25.44710451 74.86221313 27.20300293 C74.86663485 30.88159178 74.86021037 34.55996197 74.84619141 38.23852539 C74.82909955 42.95313166 74.83894155 47.66722558 74.8569088 52.38181305 C74.86775077 56.00722105 74.86429841 59.63250765 74.85652542 63.25791931 C74.85452456 64.99625204 74.85697871 66.7345958 74.86396408 68.47291565 C74.87158545 70.90273222 74.85996535 73.33171976 74.84326172 75.76147461 C74.84933441 76.47951767 74.8554071 77.19756073 74.86166382 77.93736267 C74.8245963 80.84877384 74.55760735 83.16579228 73.40237427 85.85035706 C70.45932946 88.19853405 67.51439955 87.95394377 63.91015625 87.90576172 C63.14400497 87.9111647 62.3778537 87.91656769 61.58848572 87.9221344 C59.05404112 87.93464955 56.52072637 87.91811311 53.98632812 87.90014648 C52.22660258 87.90030141 50.46687669 87.90178929 48.70715332 87.90455627 C45.01831995 87.90594151 41.32987481 87.89336161 37.64111328 87.87060547 C32.90954255 87.84222032 28.17861707 87.84495642 23.4469986 87.85769558 C19.81303381 87.86464617 16.17921852 87.8568706 12.54527283 87.84443855 C10.80053785 87.83991801 9.05578686 87.83959251 7.31105042 87.84350395 C4.87369824 87.84641015 2.43723938 87.82993847 0 87.80810547 C-0.72320938 87.81260712 -1.44641876 87.81710876 -2.19154358 87.82174683 C-4.91122981 87.78120925 -7.06991941 87.65828092 -9.49221802 86.36183167 C-11.159989 83.26017409 -10.96121549 80.10978485 -10.93310547 76.67553711 C-10.93836243 75.88987869 -10.94361938 75.10422028 -10.94903564 74.29475403 C-10.96224854 71.69556853 -10.95349322 69.09699456 -10.94335938 66.49780273 C-10.94537974 64.69323611 -10.94829087 62.88867027 -10.95205688 61.08410645 C-10.95648198 57.30119049 -10.95004326 53.51848698 -10.93603516 49.7355957 C-10.91894312 44.88298382 -10.92878332 40.03086968 -10.94675255 35.17827606 C-10.95758541 31.45168294 -10.95414635 27.72520811 -10.94636917 23.99861145 C-10.94436578 22.20921266 -10.94683129 20.41980318 -10.95380783 18.63041687 C-10.9614142 16.13084401 -10.94983008 13.63208081 -10.93310547 11.13256836 C-10.93917816 10.3906575 -10.94525085 9.64874664 -10.95150757 8.88435364 C-10.91714784 6.11698456 -10.81720948 3.91044296 -9.49221802 1.4462738 C-6.44240138 -0.18603219 -3.37450803 -0.02100477 0 0 Z M2.45507812 13.40405273 C2.45507812 33.53405273 2.45507812 53.66405273 2.45507812 74.40405273 C21.92507812 74.40405273 41.39507812 74.40405273 61.45507812 74.40405273 C61.45507812 54.27405273 61.45507812 34.14405273 61.45507812 13.40405273 C41.98507813 13.40405273 22.51507813 13.40405273 2.45507812 13.40405273 Z " fill="#fb923c" transform="translate(89.544921875,220.595947265625)"/>
<path d="M0 0 C3 0.5 3 0.5 5.4375 2.125 C7 4.5 7 4.5 7.0625 7.4375 C5.78711835 11.11360005 3.73340224 12.88042149 1 15.5 C-0.38970127 16.8890309 -1.77609206 18.28137749 -3.16015625 19.67602539 C-7.50180696 24.03554332 -11.84656558 28.39195017 -16.19238281 32.74731445 C-18.065023 34.62500262 -19.93676736 36.50358463 -21.80761719 38.38305664 C-24.51521624 41.10278993 -27.22603599 43.81927684 -29.9375 46.53515625 C-30.77095947 47.37377701 -31.60441895 48.21239777 -32.46313477 49.07643127 C-34.62386307 51.23736766 -36.80435012 53.37464107 -39 55.5 C-39.86753906 56.3448999 -40.73507813 57.1897998 -41.62890625 58.06030273 C-45.07443954 60.1523857 -47.03618171 60.19498983 -51 59.5 C-53.68229932 57.77866101 -55.78961659 55.6218827 -57.9921875 53.33203125 C-58.6235965 52.70020432 -59.25500549 52.06837738 -59.9055481 51.41740417 C-61.23318839 50.08140119 -62.55229901 48.73687436 -63.86328125 47.38452148 C-65.87007553 45.31757208 -67.90468535 43.28154413 -69.9453125 41.24804688 C-71.23351865 39.94443318 -72.52003659 38.63914861 -73.8046875 37.33203125 C-74.7155159 36.41923149 -74.7155159 36.41923149 -75.64474487 35.48799133 C-80.8724995 30.0513662 -80.8724995 30.0513662 -81 25.5 C-80.02269781 22.79362471 -79.59487555 21.79743778 -77 20.5 C-74.04175691 19.93652513 -71.96254968 19.89411956 -69.35546875 21.53515625 C-67.13009685 23.43084342 -65.07285272 25.43661237 -63 27.5 C-62.39784668 28.09522461 -61.79569336 28.69044922 -61.17529297 29.30371094 C-56.75581633 33.67518457 -52.36771065 38.0768399 -48 42.5 C-45.20092329 41.22429396 -43.16631168 39.9108322 -41.01074219 37.72192383 C-40.45626404 37.16406693 -39.90178589 36.60621002 -39.33050537 36.03144836 C-38.74190735 35.42939072 -38.15330933 34.82733307 -37.546875 34.20703125 C-36.92782288 33.58277756 -36.30877075 32.95852386 -35.67095947 32.31535339 C-33.69248853 30.3191003 -31.72081257 28.316312 -29.75 26.3125 C-27.16485897 23.69062914 -24.57648198 21.07201552 -21.984375 18.45703125 C-21.05774551 17.52167793 -21.05774551 17.52167793 -20.11239624 16.56742859 C-16.35438859 12.79580152 -12.53054698 9.16138143 -8.43896484 5.74853516 C-6.8015707 4.38612739 -6.8015707 4.38612739 -4.875 2.0625 C-3 0.5 -3 0.5 0 0 Z " fill="#fb923c" transform="translate(291,233.5)"/>
</svg>
