<?xml version="1.0" encoding="UTF-8"?>
<svg version="1.1" xmlns="http://www.w3.org/2000/svg" width="512" height="512">
<path d="M0 0 C1.25908676 -0.00043808 1.25908676 -0.00043808 2.54360962 -0.00088501 C5.3140095 0.00050669 8.08413937 0.01606039 10.85449219 0.03173828 C12.77691501 0.03546898 14.69933973 0.03831568 16.62176514 0.04031372 C21.67868307 0.0479457 26.7354859 0.06759051 31.7923584 0.08972168 C36.95367882 0.11018944 42.11501787 0.11931743 47.27636719 0.12939453 C57.40141772 0.15083677 67.52638288 0.18496752 77.65136719 0.22705078 C77.59078125 1.10852783 77.53019531 1.99000488 77.46777344 2.89819336 C77.24117797 6.2210851 77.01794956 9.54416973 76.796875 12.86743164 C76.70118314 14.29590564 76.60421439 15.72429478 76.50585938 17.15258789 C74.54422946 45.68629643 74.24465262 78.96602756 93.46386719 102.28955078 C102.9147825 111.98090034 115.92846835 118.22455462 129.4543457 118.51977539 C145.80935988 118.6425403 158.50063141 114.87458212 170.83886719 103.66455078 C184.22121586 89.45782745 187.87275578 71.47210097 187.90136719 52.60205078 C187.90370361 51.90218048 187.90604004 51.20231018 187.90844727 50.48123169 C187.92545149 36.87765732 186.7443555 23.57290058 184.92675781 10.08422852 C184.61139925 6.81238341 184.65136719 3.51405876 184.65136719 0.22705078 C211.38136719 0.22705078 238.11136719 0.22705078 265.65136719 0.22705078 C264.99136719 7.15705078 264.33136719 14.08705078 263.65136719 21.22705078 C263.4584237 26.44153651 263.31520941 31.58072457 263.33886719 36.78955078 C263.34069 37.44383057 263.34251282 38.09811035 263.34439087 38.7722168 C263.45149777 61.85706736 266.37604473 86.5487995 282.96386719 104.10205078 C294.29810938 114.67175724 307.30098218 118.86929659 322.62158203 118.69970703 C336.61166156 118.18290827 349.95105749 112.47773266 359.65136719 102.22705078 C371.1216132 88.18033482 375.85807432 71.56203226 375.83886719 53.64501953 C375.83806152 52.83244186 375.83725586 52.0198642 375.83642578 51.18266296 C375.73732667 40.91892138 374.68153102 30.74353096 373.65136719 20.53955078 C373.45782491 18.55460588 373.2651125 16.56957988 373.07324219 14.58447266 C372.60879884 9.79768097 372.13330194 5.01211173 371.65136719 0.22705078 C384.68190467 0.13427605 397.71236327 0.06324754 410.74316406 0.01980209 C416.79422695 -0.00105199 422.84506347 -0.0293304 428.89599609 -0.07470703 C434.73800881 -0.11824164 440.57980411 -0.14210272 446.42196655 -0.15245819 C448.64825868 -0.15983582 450.87453922 -0.17424262 453.10073853 -0.19586945 C456.22464499 -0.22500395 459.34765871 -0.22890093 462.47167969 -0.22705078 C463.84517326 -0.24862244 463.84517326 -0.24862244 465.24641418 -0.27062988 C472.14018403 -0.22659492 477.40647119 1.42691852 482.67480469 5.97314453 C483.12082031 6.53130859 483.56683594 7.08947266 484.02636719 7.66455078 C484.71859375 8.49792969 484.71859375 8.49792969 485.42480469 9.34814453 C488.49142776 14.0457423 488.89967058 18.06258369 488.89187622 23.62385559 C488.8944395 24.72669759 488.8944395 24.72669759 488.89705455 25.85181922 C488.90034312 28.31008543 488.88935631 30.76807738 488.87841797 33.22631836 C488.87785372 34.99058018 488.87817069 36.75484246 488.87930298 38.519104 C488.87987695 43.30588649 488.86811542 48.09256881 488.85415506 52.87932801 C488.84165513 57.88281894 488.84047778 62.88631215 488.83810425 67.88981628 C488.83188732 77.36344318 488.8154736 86.83702393 488.79540527 96.3106305 C488.77305292 107.09650817 488.7620545 117.88238804 488.7520144 128.6682831 C488.73110757 150.85457047 488.69442864 173.04079459 488.65136719 195.22705078 C473.80136719 195.22705078 458.95136719 195.22705078 443.65136719 195.22705078 C443.65136719 190.27705078 443.65136719 185.32705078 443.65136719 180.22705078 C453.55136719 180.22705078 463.45136719 180.22705078 473.65136719 180.22705078 C473.65136719 140.62705078 473.65136719 101.02705078 473.65136719 60.22705078 C446.92136719 60.22705078 420.19136719 60.22705078 392.65136719 60.22705078 C391.99136719 66.16705078 391.33136719 72.10705078 390.65136719 78.22705078 C384.86902011 98.87829036 374.88648437 115.42049527 356.17871094 126.35595703 C339.5787849 135.16145489 320.74421954 138.18871232 302.21386719 134.22705078 C288.91789581 130.04665804 278.17272945 123.3185545 268.65136719 113.22705078 C267.91402344 112.45876953 267.17667969 111.69048828 266.41699219 110.89892578 C254.05698619 96.81426779 249.46862283 78.39960722 247.65136719 60.22705078 C233.46136719 60.22705078 219.27136719 60.22705078 204.65136719 60.22705078 C204.65136719 63.19705078 204.65136719 66.16705078 204.65136719 69.22705078 C203.42306727 78.78382333 200.90968409 87.57003291 196.65136719 96.22705078 C196.18214844 97.20158203 195.71292969 98.17611328 195.22949219 99.18017578 C186.5046818 115.67956969 172.28774821 125.68881503 155.22558594 132.43798828 C136.40827534 138.20596513 116.39141955 136.55993988 98.90136719 127.60205078 C81.56938024 118.08631874 70.50106656 102.07148315 64.43261719 83.49658203 C62.141984 75.47118505 61.36565835 68.79854474 60.65136719 60.22705078 C37.88136719 60.22705078 15.11136719 60.22705078 -8.34863281 60.22705078 C-8.34863281 99.82705078 -8.34863281 139.42705078 -8.34863281 180.22705078 C135.86136719 180.22705078 280.07136719 180.22705078 428.65136719 180.22705078 C428.65136719 185.17705078 428.65136719 190.12705078 428.65136719 195.22705078 C279.49136719 195.22705078 130.33136719 195.22705078 -23.34863281 195.22705078 C-23.34863281 15.22705078 -23.34863281 15.22705078 -18.34863281 7.22705078 C-12.20685249 1.46129783 -8.33531709 -0.07588866 0 0 Z M-7.34863281 19.22705078 C-9.45216237 27.64116901 -8.34863281 36.55397623 -8.34863281 45.22705078 C14.09136719 45.22705078 36.53136719 45.22705078 59.65136719 45.22705078 C59.65136719 35.32705078 59.65136719 25.42705078 59.65136719 15.22705078 C51.92162755 15.18507934 44.19230202 15.14501223 36.4625473 15.12355042 C32.86275849 15.11300131 29.26306429 15.09891027 25.66333008 15.07617188 C22.19443515 15.05439775 18.72563182 15.04247255 15.25667381 15.0372963 C13.29301811 15.03181744 11.3293991 15.01621175 9.36579895 15.00045776 C7.56449776 15.00023117 7.56449776 15.00023117 5.72680664 15 C4.1446209 14.99333817 4.1446209 14.99333817 2.5304718 14.98654175 C-1.62015592 15.3332688 -4.39306401 16.27148198 -7.34863281 19.22705078 Z M202.65136719 15.22705078 C203.1781222 25.23539598 203.74400005 35.24601229 204.65136719 45.22705078 C218.51136719 45.22705078 232.37136719 45.22705078 246.65136719 45.22705078 C246.98136719 35.32705078 247.31136719 25.42705078 247.65136719 15.22705078 C232.80136719 15.22705078 217.95136719 15.22705078 202.65136719 15.22705078 Z M389.65136719 15.22705078 C389.91243718 19.178442 390.17908412 23.12941306 390.45092773 27.08007812 C390.54263599 28.42437506 390.63281384 29.76877731 390.72143555 31.11328125 C390.84900917 33.0447032 390.98252573 34.97572973 391.11621094 36.90673828 C391.19476318 38.06931152 391.27331543 39.23188477 391.35424805 40.4296875 C391.48105344 43.17829232 391.48105344 43.17829232 392.65136719 45.22705078 C419.38136719 45.22705078 446.11136719 45.22705078 473.65136719 45.22705078 C475.013133 25.73393785 475.013133 25.73393785 471.65136719 18.22705078 C468.29677704 14.87246063 464.95851675 15.11249425 460.33062744 15.10263062 C459.63435242 15.10622589 458.93807739 15.10982117 458.22070312 15.11352539 C457.47884766 15.11337936 456.73699219 15.11323334 455.97265625 15.11308289 C453.52698822 15.11377809 451.08139688 15.12155212 448.63574219 15.12939453 C446.93752077 15.1312601 445.23929881 15.13268335 443.54107666 15.13368225 C439.07603463 15.13749646 434.61102524 15.14731739 430.14599609 15.15838623 C425.58789512 15.16862392 421.02978885 15.17318492 416.47167969 15.17822266 C407.5315612 15.18894064 398.59146691 15.20600391 389.65136719 15.22705078 Z " fill="#fb923c" transform="translate(23.3486328125,316.77294921875)"/>
<path d="M0 0 C2.52833413 1.07759164 3.84132414 2.54832697 5.63745117 4.61694336 C6.25104492 5.30401367 6.86463867 5.99108398 7.49682617 6.69897461 C8.88745117 8.80444336 8.88745117 8.80444336 8.88745117 12.80444336 C7.23510742 14.77709961 7.23510742 14.77709961 4.94995117 16.86694336 C-28.33674196 48.74274055 -42.78458728 95.22880863 -44.22436523 140.30517578 C-44.28244052 143.99295657 -44.29813684 147.67872266 -44.30004883 151.36694336 C-44.31229492 152.55223633 -44.32454102 153.7375293 -44.3371582 154.95874023 C-44.37400251 178.77244281 -41.52160727 202.49169271 -38.78857422 226.11541748 C-38.15061674 231.63583918 -37.52101754 237.15720721 -36.89482307 242.67897415 C-36.67992722 244.56335022 -36.46095333 246.44725987 -36.24180603 248.33114624 C-30.34734841 299.94069359 -30.34734841 299.94069359 -43.36254883 317.49194336 C-51.26904724 326.96971206 -60.12358683 333.18197594 -72.67504883 334.74194336 C-83.94848886 335.27645991 -93.08873761 331.93843145 -102.30004883 325.61694336 C-118.32631741 309.59067478 -120.31340258 287.81315619 -120.36254883 266.30444336 C-120.33388534 234.00479146 -113.9819194 202.48468844 -104.11254883 171.80444336 C-103.75708984 170.69166016 -103.40163086 169.57887695 -103.03540039 168.43237305 C-87.07565319 119.0135176 -63.696037 69.70162731 -30.11254883 29.80444336 C-28.96012695 28.37745117 -28.96012695 28.37745117 -27.78442383 26.92163086 C-22.23821612 20.11617515 -16.30536966 13.71225649 -10.17504883 7.42944336 C-9.07398804 6.27690063 -9.07398804 6.27690063 -7.95068359 5.10107422 C-6.90352173 4.04545288 -6.90352173 4.04545288 -5.83520508 2.96850586 C-4.90333374 2.01645264 -4.90333374 2.01645264 -3.95263672 1.04516602 C-2.11254883 -0.19555664 -2.11254883 -0.19555664 0 0 Z M-58.11254883 102.80444336 C-85.91113743 157.85843766 -118.33446048 234.52344824 -101.26489258 296.90209961 C-98.69664527 304.62763707 -95.13921115 311.25327664 -88.18676758 315.79272461 C-82.36685346 318.63143978 -76.28798375 319.43841222 -69.98754883 317.92944336 C-63.01964713 315.410791 -57.24824584 310.42976118 -53.67504883 303.92944336 C-47.18659234 288.58231797 -50.18782486 270.58403805 -51.86254883 254.49194336 C-52.04385262 252.68958242 -52.22467082 250.88717258 -52.4050293 249.0847168 C-53.4959702 238.28580561 -54.70920263 227.50369355 -55.98193359 216.72491455 C-59.91738399 183.30835493 -62.03933819 149.89674363 -58.38256836 116.3527832 C-57.90459476 111.84185329 -57.51273534 107.32283453 -57.11254883 102.80444336 C-57.44254883 102.80444336 -57.77254883 102.80444336 -58.11254883 102.80444336 Z " fill="#fb923c" transform="translate(420.112548828125,88.195556640625)"/>
<path d="M0 0 C3.32997682 1.43240688 5.3992896 3.18236524 7.8125 5.875 C8.75029297 6.89207031 8.75029297 6.89207031 9.70703125 7.9296875 C11 10 11 10 11.0390625 11.91796875 C9.49252305 15.01686172 7.06275035 17.10989238 4.5625 19.4375 C-25.57286801 48.62846758 -41.28996327 92.66023119 -42.16113281 134.12548828 C-42.18067349 135.94037847 -42.19442863 137.75533795 -42.203125 139.5703125 C-42.21371445 141.04884705 -42.21371445 141.04884705 -42.22451782 142.55725098 C-42.34491437 164.37233492 -41.91121819 185.78127559 -39.30450439 207.45977783 C-32.44351298 264.69521616 -32.44351298 264.69521616 -32.375 283.0625 C-32.3644458 284.21113525 -32.3538916 285.35977051 -32.34301758 286.54321289 C-32.5477504 298.51963196 -35.52679909 309.55090042 -43 319 C-44.1446875 320.5778125 -44.1446875 320.5778125 -45.3125 322.1875 C-52.94758329 330.17770344 -62.37996873 334.21204112 -73.3359375 334.9921875 C-84.59246054 335.02519783 -94.38182047 331.49768469 -102.75 323.875 C-119.65515783 305.30770435 -119.72857752 278.05571908 -118.73071289 254.390625 C-117.33523463 229.27557158 -112.45180436 204.02062077 -105 180 C-101.14033142 178.97954805 -98.57244932 179.06022078 -94.75 180.1875 C-93.87859375 180.42855469 -93.0071875 180.66960937 -92.109375 180.91796875 C-90 182 -90 182 -89.28735352 183.7109375 C-88.91501124 186.67702178 -89.50975493 188.8221513 -90.29296875 191.70703125 C-90.59178955 192.83906982 -90.89061035 193.9711084 -91.19848633 195.13745117 C-91.6880481 196.95660034 -91.6880481 196.95660034 -92.1875 198.8125 C-100.34162943 230.37811304 -111.28308424 276.35892408 -94.45703125 306.91015625 C-90.44919123 312.65866674 -85.18616705 316.28585911 -78.375 317.8125 C-72.00202718 318.47833298 -66.40533492 316.15641102 -60.75 313.4375 C-54.40813019 307.81629722 -50.50707543 299.85713331 -49.77658081 291.41932678 C-49.65593399 288.25425843 -49.62370151 285.10102138 -49.62890625 281.93359375 C-49.63163292 280.11570595 -49.63163292 280.11570595 -49.63441467 278.26109314 C-49.83850665 262.25833809 -51.7920513 246.41059598 -53.65020752 230.53155518 C-54.22837408 225.56266379 -54.78570862 220.59139817 -55.34520054 215.62037563 C-55.78006805 211.7586023 -56.21797305 207.89728222 -56.66697693 204.03712463 C-58.07912693 191.83347799 -59.15386657 179.7196294 -59.16796875 167.42578125 C-59.17296135 165.85270454 -59.17296135 165.85270454 -59.17805481 164.24784851 C-59.18307397 162.04715406 -59.18546471 159.84645213 -59.18530273 157.64575195 C-59.18748367 154.33727029 -59.20567881 151.02912587 -59.22460938 147.72070312 C-59.25317551 136.54360245 -58.9218257 125.61960919 -57.4309082 114.53588867 C-57.07727232 111.63407085 -56.91071717 108.91527841 -57 106 C-65.20342875 122.37661045 -72.32712975 138.84043022 -78.83203125 155.95263672 C-80.50640083 160.32125734 -82.24538526 164.66308737 -84 169 C-89.45479185 168.43179252 -93.91059256 167.05362055 -99 165 C-98.41719444 159.12468989 -96.7692814 154.10912101 -94.625 148.625 C-94.27268311 147.71580811 -93.92036621 146.80661621 -93.55737305 145.86987305 C-79.59555464 110.31618532 -62.46587572 75.9804507 -40 45 C-39.51966309 44.33178223 -39.03932617 43.66356445 -38.54443359 42.97509766 C-32.60644124 34.74687475 -26.42237633 26.98291909 -19.453125 19.60546875 C-17.36972845 17.39268929 -15.39252399 15.13751684 -13.4375 12.8125 C-9.37284835 8.10345235 -4.68711231 4.07410969 0 0 Z M-56 102 C-55 104 -55 104 -55 104 Z " fill="#fb923c" transform="translate(231,88)"/>
<path d="M0 0 C5.28 0 10.56 0 16 0 C16.37125 2.0625 16.7425 4.125 17.125 6.25 C19.97629291 19.53810091 25.84240877 29.75095941 37.18359375 37.390625 C44.31818092 41.46753196 51.89399781 43.23528281 60 44 C61.75559942 45.75559942 61.13221919 48.03582442 61.13671875 50.37109375 C61.13285156 51.07363281 61.12898438 51.77617188 61.125 52.5 C61.12886719 53.20253906 61.13273437 53.90507813 61.13671875 54.62890625 C61.12661378 59.87338622 61.12661378 59.87338622 60 61 C58.17118904 61.29985375 56.33654532 61.56438087 54.5 61.8125 C43.75797022 63.53479694 33.05782686 68.7013757 26.12109375 77.33984375 C20.44884543 86.09168861 17.70844182 94.7493491 16 105 C10.72 105 5.44 105 0 105 C-0.37125 102.9375 -0.7425 100.875 -1.125 98.75 C-3.98865871 85.40426981 -9.86290699 75.25979352 -21.25390625 67.609375 C-28.52029045 63.35083973 -35.68886585 61.67025275 -44 61 C-45.75559942 59.24440058 -45.13221919 56.96417558 -45.13671875 54.62890625 C-45.13285156 53.92636719 -45.12898438 53.22382812 -45.125 52.5 C-45.12886719 51.79746094 -45.13273437 51.09492187 -45.13671875 50.37109375 C-45.12661378 45.12661378 -45.12661378 45.12661378 -44 44 C-42.17118904 43.70014625 -40.33654532 43.43561913 -38.5 43.1875 C-25.15181851 41.04735214 -15.33559624 34.09549072 -7.41796875 23.2265625 C-2.84077093 16.03922708 -1.27991179 8.31942664 0 0 Z M7 31 C5.77934444 32.62754075 4.62423979 34.30442523 3.5 36 C-0.06664073 41.05980477 -3.84438375 44.67119173 -8.80078125 48.34375 C-10.71655586 49.78653585 -12.35918679 51.25829537 -14 53 C-13.2265625 53.53367187 -12.453125 54.06734375 -11.65625 54.6171875 C-4.20146213 59.94994417 2.79965538 65.59931077 7 74 C7.66 74 8.32 74 9 74 C10.22065556 72.37245925 11.37576021 70.69557477 12.5 69 C16.06664073 63.94019523 19.84438375 60.32880827 24.80078125 56.65625 C26.71655586 55.21346415 28.35918679 53.74170463 30 52 C29.2265625 51.46632813 28.453125 50.93265625 27.65625 50.3828125 C20.20146213 45.05005583 13.20034462 39.40068923 9 31 C8.34 31 7.68 31 7 31 Z " fill="#fb923c" transform="translate(353,0)"/>
<path d="M0 0 C5.28 0 10.56 0 16 0 C16.37125 2.0625 16.7425 4.125 17.125 6.25 C19.97629291 19.53810091 25.84240877 29.75095941 37.18359375 37.390625 C44.31818092 41.46753196 51.89399781 43.23528281 60 44 C61.75559942 45.75559942 61.13221919 48.03582442 61.13671875 50.37109375 C61.13285156 51.07363281 61.12898438 51.77617188 61.125 52.5 C61.12886719 53.20253906 61.13273437 53.90507813 61.13671875 54.62890625 C61.12661378 59.87338622 61.12661378 59.87338622 60 61 C58.17118904 61.29985375 56.33654532 61.56438087 54.5 61.8125 C43.75797022 63.53479694 33.05782686 68.7013757 26.12109375 77.33984375 C20.44884543 86.09168861 17.70844182 94.7493491 16 105 C10.72 105 5.44 105 0 105 C-0.37125 102.9375 -0.7425 100.875 -1.125 98.75 C-3.98865871 85.40426981 -9.86290699 75.25979352 -21.25390625 67.609375 C-28.52029045 63.35083973 -35.68886585 61.67025275 -44 61 C-45.75559942 59.24440058 -45.13221919 56.96417558 -45.13671875 54.62890625 C-45.13285156 53.92636719 -45.12898438 53.22382812 -45.125 52.5 C-45.12886719 51.79746094 -45.13273437 51.09492187 -45.13671875 50.37109375 C-45.12661378 45.12661378 -45.12661378 45.12661378 -44 44 C-42.17118904 43.70014625 -40.33654532 43.43561913 -38.5 43.1875 C-25.15181851 41.04735214 -15.33559624 34.09549072 -7.41796875 23.2265625 C-2.84077093 16.03922708 -1.27991179 8.31942664 0 0 Z M7 31 C5.77934444 32.62754075 4.62423979 34.30442523 3.5 36 C-0.06664073 41.05980477 -3.84438375 44.67119173 -8.80078125 48.34375 C-10.71655586 49.78653585 -12.35918679 51.25829537 -14 53 C-13.2265625 53.53367187 -12.453125 54.06734375 -11.65625 54.6171875 C-4.20146213 59.94994417 2.79965538 65.59931077 7 74 C7.66 74 8.32 74 9 74 C10.22065556 72.37245925 11.37576021 70.69557477 12.5 69 C16.06664073 63.94019523 19.84438375 60.32880827 24.80078125 56.65625 C26.71655586 55.21346415 28.35918679 53.74170463 30 52 C29.2265625 51.46632813 28.453125 50.93265625 27.65625 50.3828125 C20.20146213 45.05005583 13.20034462 39.40068923 9 31 C8.34 31 7.68 31 7 31 Z " fill="#fb923c" transform="translate(143,0)"/>
<path d="M0 0 C5.61 0 11.22 0 17 0 C17.226875 1.77375 17.45375 3.5475 17.6875 5.375 C18.78439129 11.99552242 20.77975708 18.79491117 25.66015625 23.65234375 C27 25 27 25 27 27 C27.58007812 27.2784375 28.16015625 27.556875 28.7578125 27.84375 C30.9007789 28.94883372 32.86285929 30.17473463 34.875 31.5 C40.77835338 35.20321061 46.19101684 36.19215454 53 37 C54.75559942 38.75559942 54.13221919 41.03582442 54.13671875 43.37109375 C54.13285156 44.07363281 54.12898438 44.77617187 54.125 45.5 C54.12886719 46.20253906 54.13273437 46.90507812 54.13671875 47.62890625 C54.12661378 52.87338622 54.12661378 52.87338622 53 54 C51.35801842 54.27416026 49.71107698 54.51878303 48.0625 54.75 C41.67800335 55.85709003 35.02609517 57.96676781 30.34375 62.66015625 C29 64 29 64 27 64 C26.7215625 64.58007812 26.443125 65.16015625 26.15625 65.7578125 C25.05116628 67.9007789 23.82526537 69.86285929 22.5 71.875 C18.60451259 78.09632255 17.65585019 83.78564788 17 91 C11.39 91 5.78 91 0 91 C-0.3403125 88.339375 -0.3403125 88.339375 -0.6875 85.625 C-1.78439129 79.00447758 -3.77975708 72.20508883 -8.66015625 67.34765625 C-10 66 -10 66 -10 64 C-10.58007812 63.7215625 -11.16015625 63.443125 -11.7578125 63.15625 C-13.9007789 62.05116628 -15.86285929 60.82526537 -17.875 59.5 C-23.77835338 55.79678939 -29.19101684 54.80784546 -36 54 C-37.75559942 52.24440058 -37.13221919 49.96417558 -37.13671875 47.62890625 C-37.13285156 46.92636719 -37.12898438 46.22382813 -37.125 45.5 C-37.12886719 44.79746094 -37.13273437 44.09492188 -37.13671875 43.37109375 C-37.12661378 38.12661378 -37.12661378 38.12661378 -36 37 C-34.35801842 36.72583974 -32.71107698 36.48121697 -31.0625 36.25 C-24.67800335 35.14290997 -18.02609517 33.03323219 -13.34375 28.33984375 C-12 27 -12 27 -10 27 C-9.7215625 26.41992188 -9.443125 25.83984375 -9.15625 25.2421875 C-8.05116628 23.0992211 -6.82526537 21.13714071 -5.5 19.125 C-1.60451259 12.90367745 -0.65585019 7.21435212 0 0 Z M8 29 C6.79134397 30.52513703 5.60876047 32.07095969 4.4375 33.625 C0.76881438 38.29544245 -3.0451066 41.75823464 -8 45 C-5.61562796 47.45249695 -3.31106472 49.76869546 -0.5625 51.8125 C2.90811653 54.77522143 5.37795237 58.28768515 8 62 C10.45249695 59.61562796 12.76869546 57.31106472 14.8125 54.5625 C17.77522143 51.09188347 21.28768515 48.62204763 25 46 C22.61562796 43.54750305 20.31106472 41.23130454 17.5625 39.1875 C14.56961894 36.63260153 12.49921771 33.80817347 10.234375 30.609375 C9.82703125 30.07828125 9.4196875 29.5471875 9 29 C8.67 29 8.34 29 8 29 Z " fill="#fb923c" transform="translate(451,173)"/>
<path d="M0 0 C5.61 0 11.22 0 17 0 C17.226875 1.77375 17.45375 3.5475 17.6875 5.375 C18.78439129 11.99552242 20.77975708 18.79491117 25.66015625 23.65234375 C27 25 27 25 27 27 C27.58007812 27.2784375 28.16015625 27.556875 28.7578125 27.84375 C30.9007789 28.94883372 32.86285929 30.17473463 34.875 31.5 C40.77835338 35.20321061 46.19101684 36.19215454 53 37 C54.75559942 38.75559942 54.13221919 41.03582442 54.13671875 43.37109375 C54.13285156 44.07363281 54.12898438 44.77617187 54.125 45.5 C54.12886719 46.20253906 54.13273437 46.90507812 54.13671875 47.62890625 C54.12661378 52.87338622 54.12661378 52.87338622 53 54 C51.35801842 54.27416026 49.71107698 54.51878303 48.0625 54.75 C41.67800335 55.85709003 35.02609517 57.96676781 30.34375 62.66015625 C29 64 29 64 27 64 C26.7215625 64.58007812 26.443125 65.16015625 26.15625 65.7578125 C25.05116628 67.9007789 23.82526537 69.86285929 22.5 71.875 C18.60451259 78.09632255 17.65585019 83.78564788 17 91 C11.39 91 5.78 91 0 91 C-0.3403125 88.339375 -0.3403125 88.339375 -0.6875 85.625 C-1.78439129 79.00447758 -3.77975708 72.20508883 -8.66015625 67.34765625 C-10 66 -10 66 -10 64 C-10.58007812 63.7215625 -11.16015625 63.443125 -11.7578125 63.15625 C-13.9007789 62.05116628 -15.86285929 60.82526537 -17.875 59.5 C-23.77835338 55.79678939 -29.19101684 54.80784546 -36 54 C-37.75559942 52.24440058 -37.13221919 49.96417558 -37.13671875 47.62890625 C-37.13285156 46.92636719 -37.12898438 46.22382813 -37.125 45.5 C-37.12886719 44.79746094 -37.13273437 44.09492188 -37.13671875 43.37109375 C-37.12661378 38.12661378 -37.12661378 38.12661378 -36 37 C-34.35801842 36.72583974 -32.71107698 36.48121697 -31.0625 36.25 C-24.67800335 35.14290997 -18.02609517 33.03323219 -13.34375 28.33984375 C-12 27 -12 27 -10 27 C-9.7215625 26.41992188 -9.443125 25.83984375 -9.15625 25.2421875 C-8.05116628 23.0992211 -6.82526537 21.13714071 -5.5 19.125 C-1.60451259 12.90367745 -0.65585019 7.21435212 0 0 Z M8 29 C6.79134397 30.52513703 5.60876047 32.07095969 4.4375 33.625 C0.76881438 38.29544245 -3.0451066 41.75823464 -8 45 C-5.61562796 47.45249695 -3.31106472 49.76869546 -0.5625 51.8125 C2.90811653 54.77522143 5.37795237 58.28768515 8 62 C10.45249695 59.61562796 12.76869546 57.31106472 14.8125 54.5625 C17.77522143 51.09188347 21.28768515 48.62204763 25 46 C22.61562796 43.54750305 20.31106472 41.23130454 17.5625 39.1875 C14.56961894 36.63260153 12.49921771 33.80817347 10.234375 30.609375 C9.82703125 30.07828125 9.4196875 29.5471875 9 29 C8.67 29 8.34 29 8 29 Z " fill="#fb923c" transform="translate(44,173)"/>
<path d="M0 0 C4.95 0 9.9 0 15 0 C15 4.95 15 9.9 15 15 C10.05 15 5.1 15 0 15 C0 10.05 0 5.1 0 0 Z " fill="#fb923c" transform="translate(467,422)"/>
<path d="M0 0 C4.95 0 9.9 0 15 0 C15 4.95 15 9.9 15 15 C10.05 15 5.1 15 0 15 C0 10.05 0 5.1 0 0 Z " fill="#fb923c" transform="translate(467,392)"/>
</svg>
